<?xml version="1.0" standalone="no"?>
<!DOCTYPE svg PUBLIC "-//W3C//DTD SVG 20010904//EN"
 "http://www.w3.org/TR/2001/REC-SVG-20010904/DTD/svg10.dtd">
<svg version="1.0" xmlns="http://www.w3.org/2000/svg"
 width="2602.000000pt" height="2602.000000pt" viewBox="0 0 2602.000000 2602.000000"
 preserveAspectRatio="xMidYMid meet">
<metadata>
Created by potrace 1.14, written by Peter Selinger 2001-2017
</metadata>
<g transform="translate(0.000000,2602.000000) scale(0.100000,-0.100000)"
fill="#000000" stroke="none">
<path d="M8362 15842 l-62 -3 -60 -89 c-33 -49 -60 -94 -60 -99 0 -5 -3 -11
-8 -13 -4 -1 -36 -48 -72 -103 -35 -55 -103 -160 -152 -234 -48 -74 -86 -137
-84 -140 4 -5 467 -7 501 -2 6 1 24 14 42 29 17 15 48 41 70 58 38 31 450 371
488 402 11 9 58 48 105 87 47 38 94 78 104 87 20 18 20 18 0 18 -123 3 -764 4
-812 2z"/>
<path d="M23269 15813 c-1 -5 -1 -11 -1 -15 1 -3 4 -55 7 -115 8 -148 13 -228
19 -325 6 -84 12 -181 21 -338 3 -47 7 -110 9 -140 3 -30 7 -102 11 -160 3
-58 8 -139 10 -180 3 -41 8 -115 11 -165 3 -49 7 -117 9 -150 4 -70 14 -239
20 -340 6 -118 14 -247 20 -310 3 -33 7 -107 10 -165 6 -102 10 -166 21 -340
3 -47 7 -110 8 -140 4 -64 17 -267 21 -325 2 -22 6 -96 10 -165 4 -69 9 -145
10 -170 2 -25 3 -58 4 -74 1 -16 3 -27 6 -25 4 5 11 62 20 189 4 41 8 91 10
110 2 19 6 71 10 115 9 105 12 137 19 215 3 36 8 92 11 125 3 33 7 78 9 100 4
36 9 88 21 230 3 28 7 70 9 95 3 25 7 77 11 115 3 39 7 90 10 115 8 83 17 185
21 225 6 85 28 324 39 430 2 17 6 68 10 115 4 47 9 94 10 105 1 11 3 37 4 58
l1 37 255 0 c197 0 255 -3 256 -12 3 -25 -6 -151 -16 -238 -2 -19 -7 -71 -11
-115 -9 -107 -11 -128 -18 -210 -16 -161 -29 -330 -30 -375 -2 -184 103 -359
264 -438 110 -54 113 -54 783 -56 300 0 447 -4 448 -11 1 -5 1 -12 1 -15 -1
-29 -15 -201 -17 -220 -2 -14 -6 -61 -10 -105 -4 -44 -9 -97 -10 -117 -2 -20
-7 -72 -10 -115 -4 -43 -8 -89 -10 -103 -6 -41 -18 -192 -19 -237 -1 -24 -5
-43 -9 -43 -5 0 -5 -5 -2 -10 4 -6 -1 -35 -10 -66 -28 -97 -121 -167 -222
-167 -67 0 -99 21 -114 75 -17 65 -61 152 -113 223 -36 49 -152 161 -186 179
-116 63 -145 77 -187 91 -84 29 -149 39 -263 38 -94 0 -138 -6 -220 -29 -51
-15 -199 -80 -210 -93 -3 -3 -30 -25 -60 -48 -58 -44 -133 -120 -165 -169 -38
-56 -105 -183 -105 -198 -1 -24 -37 -57 -65 -60 -31 -3 -105 28 -105 43 0 5
-7 11 -15 14 -11 5 -13 -1 -10 -31 3 -20 8 -84 11 -142 3 -58 7 -123 8 -145 2
-22 4 -49 5 -60 1 -16 12 -24 44 -32 57 -16 91 -51 116 -120 21 -57 61 -143
71 -153 3 -3 12 -18 20 -35 19 -37 150 -175 167 -175 7 0 13 -4 13 -10 0 -12
113 -75 189 -105 34 -13 61 -22 61 -20 0 3 12 0 28 -6 26 -10 93 -19 176 -23
161 -8 373 61 514 169 25 19 127 121 150 151 35 44 87 140 117 217 31 77 60
102 120 106 124 6 167 14 238 42 52 21 152 84 185 117 59 59 135 185 140 232
0 3 5 17 11 31 10 26 13 47 27 159 9 74 14 125 28 290 3 30 8 89 12 130 4 41
8 91 9 110 5 72 17 206 21 223 2 10 6 55 10 100 3 45 8 86 11 90 3 5 7 66 10
136 5 123 5 130 -18 162 -43 59 -59 70 -127 86 -76 19 -79 21 -111 83 -110
211 -134 257 -143 268 -6 6 -7 12 -3 12 4 0 3 6 -3 13 -11 13 -74 135 -421
810 -51 98 -106 192 -123 209 -62 61 -56 60 -703 63 -324 1 -596 3 -604 4 -11
1 -12 12 -6 54 25 187 29 234 30 342 0 134 -6 165 -45 242 -75 146 -228 241
-417 258 -29 3 -54 2 -54 -2z m1316 -3681 c54 -16 152 -76 188 -115 86 -94
118 -183 113 -310 -4 -95 -5 -103 -24 -150 -7 -16 -12 -31 -12 -35 0 -14 -72
-108 -108 -142 -83 -77 -192 -117 -308 -114 -43 1 -86 4 -94 6 -91 25 -145 55
-207 116 -210 209 -153 565 114 707 95 50 238 66 338 37z"/>
<path d="M21879 15695 c-3 -2 -47 -5 -99 -6 -84 -1 -171 -10 -250 -23 -59 -11
-217 -58 -237 -72 -13 -8 -23 -12 -23 -9 0 18 -239 -132 -286 -179 -12 -12
-32 -30 -45 -42 -123 -107 -216 -301 -243 -509 -3 -22 -8 -58 -11 -80 -11 -73
-14 -109 -21 -230 -10 -181 -10 -246 -2 -251 6 -4 687 -7 968 -4 l45 0 2 218
c3 438 20 534 103 574 52 25 135 17 170 -17 16 -15 32 -40 35 -54 3 -14 8 -37
11 -51 14 -61 16 -134 17 -620 0 -726 -9 -817 -86 -872 -44 -31 -159 -33 -199
-3 -39 30 -62 82 -73 170 -1 11 -3 23 -4 28 0 4 -209 7 -464 7 l-462 0 0 -559
c0 -490 2 -560 15 -563 8 -2 222 -3 475 -3 l460 1 0 212 c0 117 3 212 6 212 4
0 15 -12 24 -27 31 -46 123 -131 178 -162 169 -96 413 -112 629 -41 50 16 74
28 169 81 28 16 136 104 163 134 112 122 164 235 191 410 3 22 8 53 11 69 3
16 6 59 8 96 2 38 6 72 8 77 14 26 -2 994 -17 1088 -29 176 -39 213 -85 330
-12 32 -55 120 -60 125 -3 3 -13 21 -24 40 -10 19 -24 40 -30 45 -6 6 -24 29
-39 52 -40 57 -164 183 -183 183 -2 0 -14 9 -25 19 -19 17 -212 121 -224 121
-3 -1 -35 8 -71 20 -66 20 -87 25 -154 36 -19 3 -37 8 -41 9 -3 2 -52 7 -110
10 -57 4 -107 9 -110 11 -3 2 -8 2 -10 -1z"/>
<path d="M4681 15468 c-1 -112 -2 -210 -2 -218 1 -8 1 -102 1 -207 l1 -193
314 0 315 0 0 -1634 0 -1634 218 -1 c263 -1 204 -1 527 -1 149 -1 278 -1 289
-1 10 0 21 2 24 5 3 3 5 738 5 1633 l0 1628 316 5 316 5 0 407 0 408 -1161 0
-1162 0 -1 -202z"/>
<path d="M928 15625 c-31 -15 -50 -35 -70 -70 -14 -27 -25 -52 -23 -55 2 -4
-2 -49 -10 -101 -7 -52 -16 -114 -18 -139 l-5 -45 981 0 c540 0 1006 -3 1035
-7 109 -17 182 -98 187 -209 5 -96 -35 -169 -118 -215 l-52 -29 -550 -2 c-302
-2 -915 -4 -1362 -5 l-811 -3 -39 -31 c-55 -44 -75 -88 -69 -149 10 -89 63
-137 158 -141 35 -2 65 -4 68 -5 3 -1 10 0 15 1 6 1 36 1 68 1 31 -1 72 -2 90
-2 17 1 57 1 87 0 30 0 61 0 68 0 6 1 24 1 40 0 15 0 36 1 47 1 11 1 27 1 35
1 33 -2 77 0 108 2 17 2 32 1 32 -2 0 -3 28 -5 62 -4 59 2 109 3 151 3 9 0 28
0 42 0 14 0 32 0 40 0 8 0 26 0 40 0 14 0 31 -1 38 -1 6 0 39 0 72 0 60 1 79
1 185 0 30 0 61 0 68 0 6 1 24 1 40 0 15 0 36 1 47 1 11 1 27 1 35 1 33 -2 77
0 108 2 17 2 32 1 32 -2 0 -3 28 -5 62 -4 59 2 109 3 151 3 9 0 28 0 42 0 14
0 32 0 40 0 8 0 26 0 40 0 14 0 31 -1 38 -1 6 0 39 0 72 0 33 1 76 1 95 1 19
0 58 0 87 1 28 1 55 -1 60 -4 4 -2 17 -1 28 3 11 4 29 4 40 0 11 -4 29 -4 40
0 11 4 30 4 42 -1 13 -5 25 -4 28 2 4 5 10 7 14 5 4 -3 31 -7 59 -10 225 -22
293 -302 108 -444 -59 -45 -63 -45 -1031 -47 -872 -1 -922 -2 -958 -19 -45
-22 -84 -70 -89 -108 -2 -15 -7 -30 -10 -33 -9 -10 12 -77 34 -108 22 -30 61
-53 104 -61 16 -3 426 -6 911 -6 773 0 886 -2 919 -16 57 -24 94 -55 122 -104
36 -61 38 -175 3 -234 -34 -60 -70 -93 -126 -118 l-50 -22 -1135 -1 c-1237 -2
-1164 2 -1216 -57 -70 -79 -51 -207 39 -255 22 -12 60 -18 122 -19 l90 -2 -2
-63 c-1 -35 -4 -86 -7 -114 -3 -27 -8 -86 -12 -130 -6 -73 -11 -110 -14 -110
0 0 -3 -64 -6 -141 -6 -155 4 -222 50 -312 33 -64 102 -135 169 -171 79 -43
124 -53 285 -65 65 -5 86 -22 102 -84 16 -59 61 -154 77 -165 7 -4 13 -13 13
-20 0 -20 95 -126 166 -186 44 -38 184 -106 244 -119 58 -12 169 -25 210 -25
311 6 580 194 700 492 27 68 39 86 62 96 23 9 199 12 739 11 702 -1 709 -1
710 19 0 11 2 27 4 35 1 8 6 47 9 85 4 39 9 88 12 110 2 22 6 63 9 90 2 28 7
70 9 95 3 25 8 68 10 95 3 28 8 73 11 100 10 88 15 139 20 190 2 28 7 73 10
100 10 82 14 117 20 180 3 33 8 80 10 105 3 25 7 68 10 95 3 28 7 66 10 85 3
19 7 62 10 95 4 63 12 136 20 195 2 19 7 67 11 105 3 39 8 79 10 90 2 11 6 52
9 90 3 39 7 79 9 90 5 27 19 163 20 203 0 17 3 32 6 32 3 0 5 17 6 38 0 35 11
142 19 207 3 17 7 59 10 95 2 36 7 76 9 90 3 14 7 57 11 95 7 70 12 128 20
195 2 19 7 64 10 100 3 36 8 79 10 95 11 81 20 184 20 223 0 23 3 42 6 42 3 0
7 21 8 48 5 77 8 107 10 107 1 0 4 22 6 49 2 28 6 68 9 90 3 23 8 68 11 101 3
33 8 76 10 95 l5 36 -1744 0 -1744 1 -44 -22z"/>
<path d="M13087 15584 c-1 -1 -18 -5 -37 -7 -19 -3 -35 -6 -35 -7 0 -1 -11 -3
-25 -4 -14 -2 -52 -11 -85 -21 -33 -10 -63 -18 -67 -17 -3 1 -12 -5 -18 -13
-7 -8 -20 -15 -29 -15 -9 0 -23 -6 -29 -12 -7 -7 -16 -13 -20 -14 -13 -1 -72
-39 -72 -46 0 -5 -4 -8 -10 -8 -19 0 -111 -89 -169 -165 -17 -22 -34 -44 -39
-50 -34 -43 -121 -254 -137 -331 -41 -206 -48 -394 -48 -1374 0 -872 10 -1234
38 -1312 2 -7 7 -26 10 -43 3 -16 7 -34 9 -40 2 -5 6 -23 11 -40 39 -151 168
-350 295 -456 78 -66 232 -142 315 -155 11 -1 31 -5 45 -9 14 -3 39 -8 55 -11
40 -9 248 -10 310 -2 84 11 196 45 275 84 41 20 77 39 80 43 3 4 21 18 40 31
52 35 142 128 184 190 71 104 143 275 161 380 3 19 8 42 10 50 4 16 11 73 20
175 22 251 22 1964 -1 2245 -10 133 -14 160 -28 223 -71 303 -238 529 -477
645 -62 30 -151 60 -197 67 -21 3 -49 8 -62 11 -23 6 -268 13 -273 8z m180
-693 c12 -10 30 -42 40 -72 17 -51 18 -122 18 -1284 0 -676 -4 -1257 -8 -1289
-14 -106 -47 -145 -119 -142 -86 3 -107 45 -115 236 -7 151 -6 2251 1 2355 6
97 10 114 31 159 26 54 108 74 152 37z"/>
<path d="M10520 15500 c-5 -3 -12 -44 -16 -90 -3 -47 -10 -95 -15 -107 -5 -15
-5 -23 2 -23 6 0 7 -4 4 -10 -3 -5 -8 -29 -10 -52 -7 -70 -16 -156 -20 -185
-2 -16 -6 -57 -10 -92 -3 -34 -7 -79 -10 -100 -2 -20 -7 -65 -10 -101 -3 -36
-8 -83 -11 -105 -3 -22 -7 -62 -9 -90 -8 -94 -14 -150 -19 -180 -2 -17 -7 -65
-11 -107 -3 -42 -8 -86 -10 -97 -2 -11 -6 -53 -9 -93 -4 -40 -8 -82 -10 -94
-2 -11 -7 -54 -10 -96 -4 -41 -8 -84 -10 -95 -3 -11 -7 -55 -10 -99 -4 -43 -8
-90 -10 -104 -3 -14 -7 -56 -11 -95 -8 -91 -14 -151 -20 -200 -3 -22 -7 -67
-10 -100 -3 -33 -7 -73 -10 -90 -8 -55 -18 -169 -19 -212 -1 -24 -3 -43 -6
-43 -3 0 -5 -12 -6 -27 0 -27 -11 -138 -18 -198 -2 -16 -7 -59 -10 -95 -4 -36
-8 -81 -10 -100 -6 -50 -15 -135 -22 -205 -7 -74 -12 -128 -18 -180 -4 -38
-11 -104 -21 -220 -3 -27 -7 -59 -9 -70 -2 -11 -7 -56 -10 -100 -4 -44 -9 -92
-12 -107 -4 -19 -1 -28 8 -29 7 0 196 -2 421 -2 265 -1 407 1 408 8 2 16 6 73
13 185 4 58 9 125 11 150 1 25 6 95 9 155 7 115 16 206 21 215 3 4 268 5 285
1 3 0 5 -27 6 -59 1 -57 10 -246 20 -397 2 -44 6 -117 8 -163 2 -46 7 -86 10
-89 3 -4 189 -6 414 -7 l407 0 -1 35 c-3 77 -9 139 -14 139 -3 0 -5 15 -6 33
0 31 -9 117 -19 187 -11 85 -21 172 -30 265 -2 28 -6 59 -9 70 -2 11 -7 52
-11 90 -4 39 -9 81 -10 95 -12 101 -17 144 -25 210 -5 41 -12 100 -15 130 -3
30 -8 71 -10 90 -2 19 -7 60 -10 90 -12 106 -22 182 -30 245 -2 17 -7 55 -10
85 -3 30 -7 71 -10 90 -2 20 -7 63 -11 95 -3 33 -7 71 -9 85 -2 14 -6 50 -10
80 -3 30 -8 66 -10 80 -2 14 -7 54 -10 90 -3 35 -7 76 -9 90 -2 14 -7 52 -11
85 -3 33 -9 78 -11 100 -9 68 -12 98 -19 154 -3 30 -7 70 -10 90 -14 120 -17
150 -20 181 -2 19 -6 51 -9 70 -3 19 -7 58 -10 85 -8 77 -16 145 -22 195 -3
25 -7 56 -9 70 -10 97 -18 158 -21 174 -2 10 -6 46 -9 80 -3 33 -7 75 -10 91
-8 67 -15 133 -21 185 -3 30 -7 57 -10 59 -7 7 -1154 7 -1164 1z m625 -1055
c4 -66 8 -140 10 -165 1 -25 6 -92 9 -150 4 -58 9 -132 12 -165 2 -33 7 -96
10 -140 3 -44 7 -102 9 -130 12 -156 15 -196 20 -255 2 -36 7 -103 10 -150 4
-47 8 -96 11 -110 2 -14 6 -65 9 -115 4 -49 8 -98 11 -107 7 -22 16 -20 -143
-22 l-131 -2 4 75 c3 67 10 165 19 271 14 173 18 228 18 248 1 12 3 22 7 22 3
0 6 26 6 58 1 52 5 91 19 232 2 25 7 68 9 95 9 92 18 180 21 205 2 14 6 54 9
90 4 36 8 81 11 100 2 19 7 64 11 100 3 36 8 76 9 90 2 14 3 31 4 39 1 8 3 12
5 10 3 -2 8 -58 11 -124z"/>
<path d="M14451 15500 c-5 -4 -7 -3941 -2 -3985 1 -11 649 -13 667 -3 5 4 9
349 9 899 -1 895 0 927 29 781 5 -25 20 -92 31 -137 8 -33 12 -51 70 -300 30
-132 58 -251 62 -265 4 -14 8 -32 9 -40 1 -8 6 -33 12 -55 6 -22 13 -51 16
-65 3 -14 12 -52 20 -86 8 -34 17 -72 20 -85 3 -13 7 -33 10 -44 2 -11 12 -51
21 -90 9 -38 20 -88 26 -110 5 -22 12 -51 14 -65 14 -67 38 -167 42 -180 3 -8
7 -22 8 -30 7 -54 30 -130 39 -131 43 -4 696 -3 697 1 5 16 3 3983 -1 3988 -6
8 -670 10 -671 2 0 -3 -1 -398 -1 -877 -1 -480 -4 -873 -8 -873 -4 0 -7 6 -8
13 0 6 -15 66 -32 132 -36 138 -38 148 -45 176 -2 11 -6 28 -9 37 -3 9 -8 28
-10 42 -9 45 -57 235 -63 250 -3 8 -7 22 -9 31 -2 8 -20 80 -40 160 -20 79
-38 151 -39 159 -1 8 -8 35 -14 60 -7 25 -15 52 -16 60 -2 8 -13 51 -25 95
-12 44 -23 87 -25 95 -2 8 -15 62 -30 120 -15 58 -31 121 -35 140 -5 19 -11
44 -14 55 -3 11 -11 44 -17 73 -7 28 -14 52 -18 53 -24 4 -664 3 -670 -1z"/>
<path d="M16585 15495 c-10 -32 -11 -66 -3 -71 4 -3 6 -10 2 -15 -5 -9 -8
-277 -3 -304 1 -5 0 -14 -1 -20 -2 -12 -2 -286 1 -300 1 -5 0 -14 -1 -20 -2
-11 -2 -2845 1 -2860 1 -5 0 -14 -1 -20 -5 -24 -2 -296 3 -302 4 -3 2 -13 -2
-22 -5 -9 -5 -25 -1 -36 7 -20 16 -20 586 -19 319 1 617 4 664 8 197 16 334
66 427 156 47 45 121 150 107 150 -4 0 0 7 7 16 7 9 14 21 16 28 1 6 11 47 22
90 42 164 46 296 45 1481 0 933 -5 1278 -18 1370 -3 17 -7 49 -10 73 -8 60
-61 214 -91 262 -14 22 -25 44 -25 50 0 5 -4 10 -8 10 -5 0 -17 15 -27 33 -24
44 -111 115 -194 157 -38 19 -75 37 -82 39 -101 27 -163 41 -218 46 -36 4 -79
9 -96 11 -16 2 -84 5 -150 8 -66 3 -120 6 -120 7 0 0 -186 2 -414 2 -268 1
-415 -2 -416 -8z m961 -700 c59 -28 80 -67 91 -173 9 -83 9 -2047 0 -2157 -18
-216 -45 -252 -204 -272 l-43 -5 0 1316 0 1316 63 -5 c34 -3 76 -12 93 -20z"/>
<path d="M18768 15499 c-7 -4 -10 -243 -9 -715 1 -390 1 -718 1 -729 -1 -17
-1 -103 0 -147 1 -37 1 -1436 0 -1453 -1 -17 -1 -108 0 -147 0 -7 0 -188 -1
-402 -1 -259 2 -390 9 -395 13 -8 1374 -7 1388 1 5 4 9 160 9 400 l0 393 -295
1 -295 0 0 440 0 439 240 1 c132 1 245 2 250 3 7 1 10 124 9 374 -1 204 -2
375 -3 378 0 3 -112 5 -248 5 l-248 -1 0 380 0 379 268 0 267 0 -2 400 -3 400
-663 1 c-365 0 -668 -3 -674 -6z"/>
<path d="M8118 14985 c-2 -2 -26 -7 -53 -10 -80 -10 -95 -13 -179 -35 -44 -12
-92 -28 -108 -36 -15 -8 -28 -12 -28 -10 0 3 -35 -14 -77 -36 -135 -70 -248
-161 -336 -269 -29 -35 -94 -159 -102 -194 -2 -11 -11 -45 -19 -75 -14 -54
-22 -95 -32 -175 -2 -22 -7 -146 -11 -276 l-5 -235 478 0 479 1 2 240 c2 314
8 405 31 460 15 37 37 52 91 60 104 15 162 -37 186 -165 11 -57 13 -401 3
-458 -13 -74 -56 -113 -200 -184 -64 -32 -122 -58 -128 -58 -5 0 -18 -4 -28
-10 -25 -13 -71 -33 -212 -88 -164 -65 -402 -174 -420 -192 -3 -3 -32 -23 -64
-45 -65 -44 -106 -80 -106 -95 0 -6 -4 -10 -9 -10 -8 0 -40 -59 -46 -84 -1 -6
-5 -18 -8 -26 -6 -15 -21 -76 -34 -148 -17 -89 -7 -772 12 -802 2 -4 7 -22 10
-41 24 -137 102 -264 200 -327 52 -33 170 -91 192 -95 10 -1 23 -6 29 -9 6 -4
26 -10 45 -14 19 -3 45 -8 59 -11 60 -12 267 -10 308 2 23 7 45 14 47 14 121
18 268 128 352 264 20 31 37 57 37 57 1 0 2 -28 1 -62 0 -35 3 -69 8 -75 5 -7
6 -13 1 -13 -5 0 -8 -30 -8 -67 l1 -68 167 -1 c91 0 168 -3 172 -6 3 -4 18 -3
32 1 15 4 43 6 62 4 19 -2 44 -4 55 -4 11 0 129 1 263 2 l244 1 -5 1167 c-3
641 -8 1200 -11 1241 -3 41 -8 107 -11 145 -15 222 -62 378 -147 489 -55 71
-150 155 -234 206 -45 28 -85 50 -89 50 -4 0 -21 6 -38 14 -73 32 -182 61
-267 72 -19 2 -46 7 -60 11 -27 6 -486 14 -492 8z m330 -2315 c-3 -422 -4
-436 -25 -483 -26 -55 -60 -75 -128 -72 -93 4 -137 45 -150 140 -4 28 -9 59
-12 70 -5 27 -5 343 1 375 3 14 7 46 10 71 9 72 32 136 62 177 44 60 132 142
219 206 19 14 20 13 23 -17 2 -18 2 -228 0 -467z"/>
<path d="M21407 12344 c-4 -5 -159 -8 -345 -9 l-337 0 0 -403 c0 -222 3 -406
7 -409 6 -3 697 -6 913 -3 l31 0 -2 403 c-1 221 -2 405 -3 408 0 4 -57 6 -126
5 -69 -1 -126 3 -128 7 -1 5 -6 5 -10 1z"/>
<path d="M23492 12070 c0 -14 2 -19 5 -12 2 6 2 18 0 25 -3 6 -5 1 -5 -13z"/>
<path d="M23490 12025 c0 -8 2 -15 4 -15 2 0 6 7 10 15 3 8 1 15 -4 15 -6 0
-10 -7 -10 -15z"/>
</g>
</svg>
