<svg xmlns="http://www.w3.org/2000/svg" viewBox="0 0 1301.41 320.1"><defs><style>.cls-1{font-size:258.61px;fill:#eee;}.cls-1,.cls-3{font-family:Impact;}.cls-2,.cls-3{fill:#fd7014;}.cls-3{font-size:252.87px;}.cls-4{font-size:202.3px;font-family:MyriadPro-Regular, Myriad Pro;}</style></defs><title>Ativo 2</title><g id="Camada_2" data-name="Camada 2"><g id="Camada_1-2" data-name="Camada 1"><text class="cls-1" transform="translate(232.61 231.52)">Tá</text><path class="cls-2" d="M202,227.79c-23-.16-46,0-69-.14-3.34,0-4.89.7-6,4.14-4.78,14.43-18.47,25-32.89,25.79-16.08.89-28.12-5.66-35.84-19.86a16.19,16.19,0,0,1-2.13-5.39c-.5-4.16-2.76-4.71-6.49-4.7-15.34.05-25-10.23-24.15-25.6.49-8.56,1.55-17.09,2.36-25.63.11-1.22.21-2.44.34-4-2.55,0-4.81.06-7.08,0-4.81-.16-8.09-3.39-8.16-7.93a8.33,8.33,0,0,1,8-8.58c1.25-.08,2.51,0,3.77,0q51.51,0,103,0a24,24,0,0,0,6.11-.64,12.7,12.7,0,0,0,9-14.32C142,135.06,137,131,130.65,131q-41.2,0-82.41,0a29.62,29.62,0,0,1-4.11-.16,7.81,7.81,0,0,1-7.1-7.54,8.21,8.21,0,0,1,6.39-8.59,24.15,24.15,0,0,1,5.11-.4q41.39,0,82.76,0a25,25,0,0,0,6.13-.48c5.9-1.5,10.11-7.76,9.33-13.53-.89-6.53-5.76-10.79-12.5-10.79q-45.49,0-91,0c-11.67,0-23.35,0-35,0-4.58,0-7.77-3-8.18-7.17a8.39,8.39,0,0,1,6.8-9,17.8,17.8,0,0,1,2.73-.29c1,0,2.06,0,3.09,0l124.65,0c6.53,0,10.91-3,12.65-8.45a11.14,11.14,0,0,0-8-14.37,24.19,24.19,0,0,0-5.45-.47q-46,0-92,0H40.09c.68-5.3,1.14-10.18,2-15a8.11,8.11,0,0,1,7.47-6.5c.91-.09,1.83-.09,2.75-.09,56.89,0,113.78-.06,170.66.12"/><text class="cls-3" transform="translate(506.4 235.24) scale(0.78 1)">AONDE<tspan class="cls-4" x="648.36" y="0"> </tspan></text><path class="cls-2" d="M1163.68,19.58a30.71,30.71,0,0,1,13.38,3c9.27,4.7,13.43,12.94,12.8,23.3-.37,6.09-1.33,12.15-2.08,18.73,1.5.08,2.9.2,4.3.2,17.64,0,35.28.12,52.92,0,5.55-.06,9.06,2,11.62,7,10.61,21,21.52,41.75,32.25,62.65,1,1.9,2,3,4.35,3.05,4.16.08,6.48,2.93,8.19,6.38v6.61c-.73,6.8-1.53,13.59-2.18,20.39-1.17,12.19-1.87,24.43-3.44,36.56-2,15.55-13.83,25.69-29.43,25.69-3.39,0-4.72,1-5.8,4.23a40.83,40.83,0,0,1-38.37,27.94c-16.76.19-31.66-9.84-37-25.59-1.53-4.56-3.2-6.71-8.37-7.25m105.89-77.24h-4.86c-15.8-.05-31.61.28-47.39-.26-13.54-.46-23.61-12.19-22.76-25.66.54-8.55,1.47-17.07,2.22-25.61q.91-10.32,1.8-20.67h-25.71c-.52,5.63-1,11-1.5,16.35q-3.16,34.74-6.3,69.49c-1.13,12.56-2.29,25.12-3.29,37.69-.38,4.77,1.8,7.82,5.6,8.61,2.25.46,3.7.16,4.68-2.49,6.16-16.71,21.67-27.69,38.78-27.45,20.27.27,33.55,14.06,37.27,27.93a3.3,3.3,0,0,0,1.61,2.08,11.72,11.72,0,0,0,15.27-9.65c.44-2.9.6-5.84.86-8.77C1280.26,183.15,1281.47,169.51,1282.75,155.19ZM1245,225a21.36,21.36,0,0,0-21.38-21.89,22.78,22.78,0,0,0-23,22.33,21.45,21.45,0,0,0,21.2,22.09A22.82,22.82,0,0,0,1245,225Z"/><text class="cls-1" transform="translate(1022.52 234.61)">?</text></g></g></svg>